<svg preserveAspectRatio="none" width="100%" height="100%" overflow="visible" style="display: block;" viewBox="0 0 34.9286 36" fill="none" xmlns="http://www.w3.org/2000/svg">
<g id="Group">
<path id="Vector" d="M22.6694 9.57775H12.2591C10.5975 9.57775 9.24561 10.9711 9.24561 12.6837V23.4134C9.24561 25.126 10.5975 26.5197 12.2591 26.5197H22.6694C24.3311 26.5197 25.6833 25.1264 25.6833 23.4134V12.6837C25.6833 10.9711 24.3315 9.57775 22.6694 9.57775ZM17.4643 23.6259C14.4807 23.6259 12.0533 21.124 12.0533 18.0485C12.0533 14.9735 14.4807 12.4715 17.4643 12.4715C20.4482 12.4715 22.8757 14.9735 22.8757 18.0485C22.8757 21.1236 20.4478 23.6259 17.4643 23.6259ZM23.0496 13.6246C22.3433 13.6246 21.769 13.0326 21.769 12.3051C21.769 11.5775 22.3433 10.9855 23.0496 10.9855C23.7555 10.9855 24.3299 11.5775 24.3299 12.3051C24.3299 13.0326 23.7555 13.6246 23.0496 13.6246Z" fill="var(--fill-0, #FFAC01)"/>
<path id="Vector_2" d="M17.4643 14.8283C15.7419 14.8283 14.3395 16.273 14.3395 18.0481C14.3395 19.8241 15.7419 21.2692 17.4643 21.2692C19.1874 21.2692 20.5887 19.8241 20.5887 18.0481C20.5887 16.2734 19.187 14.8283 17.4643 14.8283Z" fill="var(--fill-0, #FFAC01)"/>
<path id="Vector_3" d="M17.4643 0C7.81941 0 0 8.05927 0 18C0 27.9407 7.81941 36 17.4643 36C27.1092 36 34.9286 27.9407 34.9286 18C34.9286 8.05927 27.1092 0 17.4643 0ZM27.9695 23.4134C27.9695 26.4259 25.5923 28.876 22.6694 28.876H12.2591C9.33667 28.876 6.95902 26.4259 6.95902 23.4134V12.6837C6.95902 9.67161 9.33667 7.22102 12.2591 7.22102H22.6694C25.5923 7.22102 27.9695 9.67161 27.9695 12.6837V23.4134Z" fill="var(--fill-0, #FFAC01)"/>
</g>
</svg>
