<svg preserveAspectRatio="none" width="100%" height="100%" overflow="visible" style="display: block;" viewBox="0 0 34.9287 36" fill="none" xmlns="http://www.w3.org/2000/svg">
<g id="Group 4">
<path id="Subtract" d="M17.4639 0C27.1091 0 34.9287 8.05887 34.9287 18C34.9287 27.9411 27.1091 36 17.4639 36C7.8188 35.9998 0 27.941 0 18C0 8.05902 7.8188 0.000232682 17.4639 0Z" fill="var(--fill-0, white)"/>
<g id="Group 5">
<path id="Subtract_2" d="M17.4639 0C27.1091 0 34.9287 8.05887 34.9287 18C34.9287 27.9411 27.1091 36 17.4639 36C7.8188 35.9998 0 27.941 0 18C0 8.05902 7.8188 0.000232682 17.4639 0ZM17.7021 23.4424C17.702 25.4793 16.3443 27.1309 14.6699 27.1309C12.9957 27.1306 11.6388 25.4791 11.6387 23.4424C11.6387 21.4055 12.9956 19.7542 14.6699 19.7539C14.8734 19.754 15.077 19.7785 15.2764 19.8281V15.3682C15.075 15.3436 14.8723 15.3294 14.6699 15.3271C10.9862 15.3275 8 18.9611 8 23.4424C8.00017 27.9235 10.9863 31.5563 14.6699 31.5566C18.3538 31.5566 21.3407 27.9237 21.3408 23.4424V14.0166C22.7769 15.2089 24.3243 16.0654 26.1924 16.0654V11.3623C25.2147 11.363 24.4413 11.0278 23.6123 10.3975V10.4004C22.5073 9.56178 21.69 8.22902 21.3408 6.66309L21.0986 5H17.7021V23.4424Z" fill="var(--fill-0, #FFAC01)"/>
</g>
</g>
</svg>
