<svg preserveAspectRatio="none" width="100%" height="100%" overflow="visible" style="display: block;" viewBox="0 0 34.9286 36" fill="none" xmlns="http://www.w3.org/2000/svg">
<g id="image 31 [Vectorized]" clip-path="url(#clip0_0_26)">
<path id="Vector" d="M0 11.6541C0.119372 11.3555 0.166823 10.5589 0.219472 10.1986C0.700734 6.90455 3.01087 5.86009 5.95375 5.51559C7.72754 5.30796 9.42986 5.32856 11.2273 5.32825L17.2161 5.32839L23.402 5.32846C26.0937 5.32723 28.9652 5.1981 31.5414 6.11142C33.7749 6.90325 34.6171 8.88736 34.8024 11.1633C34.8256 11.441 34.8484 11.9609 34.9286 12.2184V22.8666C34.8105 23.2383 34.7471 24.2365 34.6908 24.679C33.9138 30.7862 28.8916 30.6765 24.1317 30.6783L18.5677 30.6771L11.9657 30.6785C11.3302 30.6784 10.6913 30.6778 10.059 30.6777C6.87278 30.6774 2.72039 30.5228 1.02154 27.2146C0.557165 26.3103 0.31278 25.2833 0.178864 24.2733C0.139828 23.9864 0.0945896 23.2441 0 23.0146V11.6541ZM19.7395 20.2902L21.4473 19.381C22.2603 18.9451 23.4321 18.4886 22.8787 17.2829C22.6671 16.8221 21.3707 16.2412 20.9159 15.9987L18.1518 14.5209L16.1385 13.4395C15.457 13.0726 15.0325 12.7151 14.2326 12.8076C13.6479 13.073 13.4587 13.4132 13.4543 14.0559C13.437 16.5865 13.4381 19.1195 13.4553 21.6501C13.473 21.834 13.4703 22.1127 13.5586 22.2737C13.9553 22.9973 14.6293 23.0716 15.2798 22.6973C16.7295 21.863 18.306 21.1401 19.7395 20.2902Z" fill="var(--fill-0, #FFAC01)"/>
</g>
<defs>
<clipPath id="clip0_0_26">
<rect width="34.9286" height="36" fill="white"/>
</clipPath>
</defs>
</svg>
